<svg width="64" height="64" viewBox="0 0 64 64" fill="none" xmlns="http://www.w3.org/2000/svg">
  <rect width="64" height="64" rx="18" fill="url(#bg)"/>
  <g opacity="0.92">
    <circle cx="10" cy="12" r="14" fill="#24E5EE" fill-opacity="0.9"/>
    <circle cx="21" cy="9" r="15" fill="#21D9F0" fill-opacity="0.78"/>
    <circle cx="31" cy="12" r="14" fill="#18CFF6" fill-opacity="0.72"/>
    <circle cx="17" cy="22" r="13" fill="#21C8FF" fill-opacity="0.62"/>
    <circle cx="28" cy="22" r="12" fill="#2EA5FF" fill-opacity="0.62"/>
    <circle cx="37" cy="18" r="11" fill="#3C7DFF" fill-opacity="0.6"/>
  </g>
  <path d="M18.5 17.5L31 30.5L20.3 26.3L18.5 17.5Z" fill="#05070B"/>
  <path d="M18.5 17.5L41.2 38.8L29.6 33.5L18.5 17.5Z" fill="#05070B"/>
  <path d="M31.4 30.8C37.2 35.5 42.6 39.8 46.7 43.9C50.9 48.1 52.4 51.8 51.1 54.4C49.2 58.2 42 58.7 34.9 55.9C26.4 52.5 20 46.1 17.3 37.6L15.1 30.8L22.7 33.7C24.5 34.4 26.2 35.2 27.8 36L18.4 22.6L34.2 35.8L31.4 30.8Z" fill="#05070B"/>
  <path d="M41.6 44.1C35.2 39.7 28.1 33.3 22.7 27.6C26.7 30.4 30.8 33.5 34.8 36.6C39.8 40.5 44.1 44.1 47.2 47.3C45.7 46.2 43.9 45.1 41.6 44.1Z" fill="#05070B"/>
  <path d="M16.3 28.4C20.7 31.5 25.3 35.2 29.5 38.9C24.6 36.7 20.5 35.6 16.3 35V28.4Z" fill="#05070B"/>
  <defs>
    <linearGradient id="bg" x1="10" y1="4" x2="54" y2="60" gradientUnits="userSpaceOnUse">
      <stop stop-color="#1CE5E8"/>
      <stop offset="0.45" stop-color="#1EAEFF"/>
      <stop offset="1" stop-color="#1022B8"/>
    </linearGradient>
  </defs>
</svg>
